<?xml version="1.0" encoding="UTF-8"?>
<svg width="600px" height="78px" viewBox="0 0 600 78" version="1.1" xmlns="http://www.w3.org/2000/svg" xmlns:xlink="http://www.w3.org/1999/xlink">
    <!-- Generator: Sketch 53.2 (72643) - https://sketchapp.com -->
    <title>brooklynrail-logo</title>
    <desc>Created with Sketch.</desc>
    <g id="brooklynrail-logo" stroke="none" stroke-width="1" fill="none" fill-rule="evenodd">
        <g id="Group" fill="#E52207">
            <polyline id="L" points="581.992531 0 566.406878 0 566.403446 76.6690596 600 76.6690596 600 62.2968068 581.989099 62.2968068 581.992531 0"></polyline>
            <polyline id="I" points="543.144293 0 543.165666 76.6690596 558.650395 76.6690596 558.62546 0 543.144293 0"></polyline>
            <path d="M503.848268,0 L491.026561,76.6690596 L505.210697,76.6690596 L508.092358,55.6734216 L520.918711,55.6734216 L524.393894,76.6690596 L538.837042,76.6690596 L525.06872,0 L503.848268,0 Z M510.196981,41.0754914 L514.274978,13.7530377 L515.258762,13.7530377 L519.2752,41.0720049 L510.196981,41.0754914 L510.196981,41.0754914 Z" id="A"></path>
            <path d="M472.271993,29.3071266 C472.271993,32.6944349 470.360278,34.1912606 468.048652,34.1912606 L461.121865,34.1912606 L461.125332,12.2672353 L467.950408,12.2672353 C471.031806,12.2672353 472.275461,14.1147525 472.275461,16.9214458 L472.271993,29.3071266 Z M487.164644,25.7351826 L487.164644,15.7590544 C487.164644,3.76006323 483.04995,0 472.287019,0 L447.092606,0 L447.092606,76.6690596 L461.0791,76.6690596 L461.0791,46.0311632 L466.73796,46.0346469 C470.592597,46.0346469 472.322849,48.5870308 472.322849,51.9755004 L472.322849,76.6690596 L488.872936,76.6690596 C488.872936,76.6690596 487.161177,74.9330205 487.161177,71.0870262 C487.161177,67.2398707 487.161177,51.4668816 487.161177,51.4668816 C487.161177,39.1288112 479.101693,39.1032642 478.311116,39.1032642 C482.454706,39.1032642 487.164644,35.9354283 487.164644,25.7351826 L487.164644,25.7351826 Z" id="R"></path>
            <polyline id="N" points="412.7087 49.1850653 412.421875 49.1850653 398.916813 0 382.053123 0 382.053123 76.6690596 395.093251 76.6690596 395.093251 28.1255083 395.387015 28.1255083 409.237887 76.6690596 425.987078 76.6690596 425.987078 0 412.71217 0 412.7087 49.1850653"></polyline>
            <polyline id="Y" points="354.485582 30.4068344 346.442348 0 330.366116 0 346.444623 46.4783875 346.442348 76.6690596 362.523129 76.6690596 362.526541 46.4807118 378.607322 0 362.526541 0 354.485582 30.4068344"></polyline>
            <polyline id="L" points="321.402116 0 305.81822 0 305.814788 76.6690596 339.411342 76.6690596 339.411342 62.2977511 321.402116 62.2977511 321.402116 0"></polyline>
            <path d="M301.437775,0 L284.784485,0 L272.405469,31.3725919 L272.343893,31.3725919 C272.343893,31.6457003 272.343893,0 272.343893,0 L257.142857,0 L257.142857,76.6690596 L272.346217,76.6690596 L272.349702,39.7982742 L272.428705,39.7982742 L286.129853,76.6690596 L303.230438,76.6690596 L286.938468,35.4169194 L301.437775,0" id="K"></path>
            <path d="M234.736355,0 L223.989301,0 C212.964306,0 208.470926,4.73458204 208.470926,16.2840578 L208.470926,61.1288941 C208.470926,72.7406063 212.964306,77.5270521 224.319356,77.5270521 L234.40051,77.5305097 C246.163207,77.5305097 250.251256,72.7406063 250.251256,61.1288941 L250.251256,16.2806003 C250.251256,4.63776975 246.067085,0 234.90312,0 M235.171796,59.7585391 C235.171796,61.9033924 233.611852,64.2948865 230.934353,64.2948865 L227.450825,64.2971915 C224.606562,64.2948865 223.54807,62.1696262 223.551544,59.7550816 L223.551544,17.7742756 C223.54807,15.5153222 224.743216,13.2321656 227.450825,13.2321656 L230.934353,13.2321656 C234.361135,13.2321656 235.174112,15.9187067 235.171796,17.7777332 L235.171796,59.7585391" id="O"></path>
            <path d="M186.926602,0 L176.178092,0 C165.15395,0 160.660445,4.73458204 160.660445,16.2840578 L160.660445,61.1288941 C160.660445,72.7406063 165.15395,77.5270521 176.508157,77.5270521 L186.589589,77.5305097 C198.352612,77.5305097 202.440775,72.7406063 202.440775,61.1288941 L202.440775,16.2806003 C202.440775,4.63776975 198.256488,0 187.093372,0 M187.360897,59.7585391 C187.360897,61.9033924 185.80091,64.2948865 183.124495,64.2948865 L179.640871,64.2971915 C176.796528,64.2948865 175.736849,62.1696262 175.740323,59.7550816 L175.740323,17.7742756 C175.736849,15.5153222 176.933187,13.2321656 179.640871,13.2321656 L183.124495,13.2321656 C186.550213,13.2321656 187.364372,15.9187067 187.360897,17.7777332 L187.360897,59.7585391" id="O"></path>
            <path d="M141.044886,29.3071266 C141.044886,32.6944349 139.132068,34.1912606 136.820506,34.1912606 L129.89391,34.1912606 L129.897378,12.2672353 L136.721109,12.2672353 C139.803577,12.2672353 141.047198,14.1147525 141.047198,16.9214458 L141.044886,29.3071266 Z M155.935969,25.7351826 L155.935969,15.7590544 C155.935969,3.76006323 151.821389,0 141.058755,0 L115.865039,0 L115.865039,76.6690596 L129.852302,76.6690596 L129.852302,46.0311632 L135.50985,46.0346469 C139.36438,46.0346469 141.094585,48.5870308 141.094585,51.9755004 L141.094585,76.6690596 L157.64537,76.6690596 C157.64537,76.6690596 155.932502,74.9330205 155.932502,71.0870262 C155.932502,67.2398707 155.932502,51.4668816 155.932502,51.4668816 C155.932502,39.1288112 147.874396,39.1032642 147.082686,39.1032642 C151.226162,39.1032642 155.935969,35.9354283 155.935969,25.7351826 L155.935969,25.7351826 Z" id="R"></path>
            <path d="M92.9540895,76.6690596 C104.047807,76.6690596 110.265614,73.0460215 110.265614,63.6110265 L110.265614,48.6265126 C110.265614,35.7078272 101.952625,34.3573165 101.153793,34.3573165 C105.20401,34.3573165 109.741234,31.1012272 109.595249,21.7347448 L109.595249,15.7590544 C109.595249,3.76006323 104.631748,0 91.5970099,0 L69.7774587,0 L69.7774587,76.6690596 L92.9540895,76.6690596 Z M83.9111743,41.2736033 L89.6279598,41.2736033 C91.2022656,41.2736033 96.2802193,41.2724421 96.2802193,47.0785928 C96.2802193,47.0785928 96.2802193,53.4061359 96.2802193,59.546721 C96.2802193,64.5841374 90.0892734,64.622458 89.4329234,64.622458 C84.938911,64.622458 83.8060649,64.622458 83.8060649,64.622458 L83.9111743,41.2736033 Z M94.3368626,25.7642134 C94.3368626,27.6512124 92.5885423,28.7729607 89.845186,28.7729607 L83.9111743,28.7729607 L83.9135101,12.2765252 L89.8883976,12.2765252 C93.3920455,12.2765252 94.3403662,13.6061337 94.3403662,15.5662902 L94.3368626,25.7642134 L94.3368626,25.7642134 Z" id="B"></path>
            <polyline id="E" points="0 76.6690596 7.25223569 76.6690596 7.25223569 64.1715308 17.9891185 64.1715308 17.9925551 75.0442192 25.2424997 75.0442192 25.2424997 64.1715308 31.9437442 64.1715308 31.9437442 76.6690596 39.1959799 76.6690596 39.1959799 56.8557071 0 56.8557071 0 76.6690596"></polyline>
            <polyline id="H" points="0.00343653563 36.4057295 17.9925551 36.4057295 17.9925551 44.574158 0 44.574158 0.00343653563 52.1177315 39.1959799 52.1177315 39.1959799 44.5705806 25.2447907 44.574158 25.2447907 36.4057295 39.1959799 36.4057295 39.1959799 28.8585786 0.00343653563 28.8585786 0.00343653563 36.4057295"></polyline>
            <polyline id="T" points="44.2561366 13.6467393 0 13.6467393 0 22.5597732 44.2561366 22.5597732 44.252667 76.6690596 53.4099067 76.6690596 53.4099067 0 44.2561366 0 44.2561366 13.6467393"></polyline>
        </g>
    </g>
</svg>