<?xml version="1.0" standalone="no"?>
<!DOCTYPE svg PUBLIC "-//W3C//DTD SVG 20010904//EN"
 "http://www.w3.org/TR/2001/REC-SVG-20010904/DTD/svg10.dtd">
<svg version="1.0" xmlns="http://www.w3.org/2000/svg"
 width="397.000000pt" height="397.000000pt" viewBox="0 0 397.000000 397.000000"
 preserveAspectRatio="xMidYMid meet">
<metadata>
Created by potrace 1.14, written by Peter Selinger 2001-2017
</metadata>
<g transform="translate(0.000000,397.000000) scale(0.100000,-0.100000)"
fill="#000000" stroke="none">
<path d="M0 1990 l0 -1720 583 0 c618 0 702 5 847 47 162 47 273 129 337 249
60 112 65 151 70 550 7 504 -7 652 -79 802 -35 75 -130 180 -193 213 -25 13
-45 26 -45 29 0 4 16 12 35 19 59 21 141 105 180 184 61 124 69 185 69 502 -1
244 -3 292 -21 376 -62 288 -227 419 -577 458 -56 7 -324 11 -651 11 l-555 0
0 -1720z m1013 1120 c54 -26 57 -44 57 -335 0 -172 -4 -273 -11 -287 -6 -11
-29 -28 -52 -39 -35 -16 -67 -19 -199 -19 l-158 0 0 351 0 351 168 -4 c115 -3
176 -9 195 -18z m62 -1295 c30 -19 56 -45 69 -70 20 -38 21 -54 21 -397 0
-346 -1 -357 -21 -385 -26 -35 -76 -70 -123 -84 -20 -6 -109 -14 -198 -16
l-163 -5 0 203 c0 112 3 336 7 497 l6 294 177 -4 c176 -3 177 -3 225 -33z"/>
<path d="M2040 1991 l0 -1721 335 0 335 0 0 681 0 681 153 -4 c164 -4 187 -10
239 -65 59 -62 58 -48 58 -698 l0 -595 401 0 400 0 -26 34 c-15 19 -36 59 -48
88 -21 51 -22 70 -27 628 l-6 575 -27 81 c-34 102 -92 183 -170 235 -33 21
-64 39 -70 39 -5 0 16 17 49 39 32 21 69 49 81 62 43 48 91 141 114 222 24 81
24 89 24 522 -1 421 -2 443 -22 517 -60 211 -170 321 -378 374 -63 16 -138 18
-742 21 l-673 4 0 -1720z m1057 1103 c15 -12 37 -36 48 -55 19 -32 20 -52 20
-379 0 -330 -1 -347 -21 -380 -11 -19 -35 -45 -54 -57 -31 -22 -43 -23 -206
-23 l-174 0 0 461 0 461 179 -4 c164 -3 182 -5 208 -24z"/>
</g>
</svg>
